PathFileType	4	(X/Y/Z)	Walk_125 04
DataRate	CameraRate	NumFrames	NumMarkers	Units	OrigDataRate	OrigDataStartFrame	OrigNumFrames
120	120	4	42	mm	120	714	128
Frame#	Time	LASI			RASI			LPSI			RPSI			RTH1			RTH2			RTH3			LTH1			LTH2			LTH3			RTB1			RTB2			RTB3			LTB1			LTB2			LTB3			RCAL			RTOE			RMT5			LCAL			LTOE			LMT5			LACR			RACR			CLAV			C7			RUA1			RUA2			RUA3			RLEL			RMEL			LUA1			LUA2			LUA3			LLEL			LMEL			RFAsuperior			RFAradius			RFAulna			LFAsuperior			LFAradius			LFAulna		
		X1	Y1	Z1	X2	Y2	Z2	X3	Y3	Z3	X4	Y4	Z4	X5	Y5	Z5	X6	Y6	Z6	X7	Y7	Z7	X8	Y8	Z8	X9	Y9	Z9	X10	Y10	Z10	X11	Y11	Z11	X12	Y12	Z12	X13	Y13	Z13	X14	Y14	Z14	X15	Y15	Z15	X16	Y16	Z16	X17	Y17	Z17	X18	Y18	Z18	X19	Y19	Z19	X20	Y20	Z20	X21	Y21	Z21	X22	Y22	Z22	X23	Y23	Z23	X24	Y24	Z24	X25	Y25	Z25	X26	Y26	Z26	X27	Y27	Z27	X28	Y28	Z28	X29	Y29	Z29	X30	Y30	Z30	X31	Y31	Z31	X32	Y32	Z32	X33	Y33	Z33	X34	Y34	Z34	X35	Y35	Z35	X36	Y36	Z36	X37	Y37	Z37	X38	Y38	Z38	X39	Y39	Z39	X40	Y40	Z40	X41	Y41	Z41	X42	Y42	Z42	

714	  5.950000	951.386793	1078.294258	-590.267668	938.655597	1087.969802	-326.337388	761.786790	1106.919028	-509.640521	761.547349	1106.791864	-428.000306	850.841990	924.362231	-271.761976	870.443552	811.790904	-286.715881	762.485400	719.079141	-308.191724	935.698666	870.756729	-650.128462	1035.146414	775.566739	-641.437523	1014.834592	651.117334	-625.481696	740.230580	408.751460	-390.325966	707.915159	346.682525	-322.605232	691.916634	248.893138	-395.776971	1151.419598	452.148388	-573.600023	1150.718001	365.498236	-633.049781	1199.024184	258.064050	-572.164554	543.444107	118.184193	-403.597088	771.033753	 69.884183	-435.280470	705.783068	 49.733422	-336.512581	1138.465760	 93.534263	-575.151876	1362.120392	152.650952	-537.655791	1316.709316	103.115028	-628.806491	915.963874	1540.283724	-643.248048	926.029532	1554.050299	-297.317130	978.684104	1499.004814	-438.121169	852.614288	1590.411904	-466.629360	917.254899	1443.623782	-218.882885	927.490866	1350.165703	-227.434979	861.310671	1332.186675	-194.348682	853.232865	1196.874650	-156.979579	833.907763	1185.183224	-230.931890	889.836605	1440.148862	-707.734994	897.428196	1367.356414	-694.992735	802.191507	1348.438950	-685.355304	796.941986	1183.994716	-713.124528	770.044535	1185.940893	-641.876320	946.736712	1152.204533	-136.168408	1095.666702	1050.498233	-179.212683	1052.000717	1014.740099	-129.818332	847.092955	1106.982577	-733.114510	876.171115	913.888381	-695.808603	816.696142	912.064512	-738.278172	
715	  5.958333	951.581274	1076.276494	-591.216099	938.903258	1085.886555	-327.284630	761.982494	1104.912121	-510.680015	761.874670	1104.803487	-429.132319	850.068863	923.019984	-272.184294	868.495872	810.522584	-287.088666	759.729335	718.742522	-308.879252	935.649225	868.598987	-651.323991	1034.603901	772.930208	-642.899779	1014.208103	648.919210	-626.156458	734.060178	408.453014	-390.582034	700.942338	346.885326	-322.888855	683.792276	249.173096	-395.888193	1152.267765	451.282832	-573.933155	1153.015941	364.386950	-632.991970	1203.517422	258.173756	-571.814355	533.760441	119.823385	-403.528340	760.858672	 69.752964	-435.196968	695.368503	 49.802053	-336.576685	1146.015184	 92.630841	-574.481543	1368.457765	155.377269	-535.952832	1324.360405	104.944027	-627.279121	916.095204	1538.367630	-644.505431	926.346727	1552.222761	-298.558015	978.959227	1496.997077	-439.322602	852.744828	1588.536582	-467.811273	917.599393	1441.747152	-220.172937	927.820010	1348.279897	-228.732253	861.749440	1330.364681	-195.495025	853.570947	1195.056014	-158.181001	834.076466	1183.382388	-232.025706	889.927740	1438.206532	-708.905690	897.511188	1365.442501	-696.135144	802.279025	1346.553207	-686.367452	796.878921	1182.212343	-714.285195	769.899938	1184.100688	-642.911094	947.072048	1150.128226	-137.563358	1095.446308	1047.896294	-180.980262	1051.876345	1012.350422	-131.373142	846.601350	1105.059903	-734.531461	874.663954	912.305579	-698.481694	815.051127	910.494246	-740.225830	
716	  5.966667	951.832232	1074.297344	-592.208939	939.289827	1083.876037	-328.254563	762.258264	1102.950775	-511.814960	762.318010	1102.818895	-430.348431	849.388953	921.657986	-272.755510	866.715636	809.221262	-287.551466	757.348344	718.289232	-309.684477	936.031892	866.893461	-652.707964	1034.891454	771.149503	-644.306915	1013.999713	647.092250	-626.606347	728.314132	408.043642	-390.841850	694.385029	347.057121	-323.200917	675.905297	249.449732	-395.986819	1152.857831	450.231305	-574.205864	1154.535812	362.967795	-632.646374	1206.798444	257.832869	-571.218878	524.165664	121.654389	-403.383192	750.716812	 69.639646	-435.091605	684.999316	 49.872279	-336.663799	1151.477631	 91.815479	-572.841681	1373.324877	156.841420	-534.968111	1329.644921	105.255015	-625.788597	916.210255	1536.471718	-645.854517	926.664604	1550.412829	-299.852829	979.262246	1495.054298	-440.587220	852.876601	1586.678246	-469.062401	917.910405	1439.914081	-221.518515	928.105098	1346.433436	-230.087871	862.110389	1328.577080	-196.758644	853.775497	1193.264048	-159.530071	834.173291	1181.652111	-233.313254	890.012649	1436.263237	-710.146604	897.607043	1363.540835	-697.361869	802.408797	1344.639938	-687.449717	796.913252	1180.377446	-715.481742	769.969298	1182.220326	-644.031190	947.162624	1147.993165	-138.975110	1094.954631	1045.051057	-182.696750	1051.392797	1009.787721	-132.881820	846.246321	1103.134526	-735.999855	873.241085	910.453658	-700.910808	813.642199	908.942460	-742.218859	
717	  5.975000	952.175343	1072.421321	-593.277103	939.807209	1081.984219	-329.215549	762.608296	1101.052015	-513.045628	762.865643	1100.847585	-431.620188	848.861920	920.287446	-273.481267	865.167670	807.896568	-288.148994	755.343842	717.748166	-310.624746	936.678467	865.704867	-654.305106	1035.851131	770.182837	-645.566165	1014.135891	645.580361	-626.772069	722.995218	407.558526	-391.152239	688.210659	347.221446	-323.540777	668.245309	249.752902	-396.075875	1153.201190	448.932866	-574.299499	1155.366906	361.256182	-632.051901	1208.834755	256.976572	-570.383236	514.659555	123.721987	-403.146742	740.603058	 69.561257	-434.963924	674.649086	 49.942423	-336.794127	1154.680499	 90.992865	-570.406644	1376.543260	157.000549	-534.613577	1332.453461	104.168373	-624.434855	916.303114	1534.636715	-647.246068	926.999445	1548.642002	-301.178112	979.591379	1493.200326	-441.919932	853.025268	1584.857966	-470.375734	918.198273	1438.123155	-222.929182	928.344660	1344.631143	-231.504649	862.392016	1326.837848	-198.129461	853.844156	1191.523331	-161.008530	834.188578	1180.009894	-234.791539	890.094315	1434.328972	-711.445863	897.733885	1361.664490	-698.667634	802.579244	1342.703102	-688.599812	797.037657	1178.504899	-716.720950	770.343127	1180.304772	-645.270021	947.025975	1145.796347	-140.436557	1094.173643	1041.980812	-184.360611	1050.535339	1007.064532	-134.344057	846.042996	1101.230012	-737.577470	871.920591	908.149588	-702.906179	812.447548	907.305250	-744.231843	
